<svg width="16" height="16" xmlns="http://www.w3.org/2000/svg" viewBox="0 0 16 16"><path fill-rule="evenodd" clip-rule="evenodd" fill="#3D4142" d="M12.7 1.5C11.4.6 9.8 0 8 0 3.6 0 0 3.6 0 8c0 .3 0 .7.1 1-.1.2-.1.3-.1.5v4c0 .2 0 .4.1.6l.9-.9V9.5c0-.3.2-.5.5-.5h2c.3 0 .5.2.5.5v.7l1-1C4.9 8.6 4.2 8 3.5 8h-2c-.2 0-.3 0-.5.1V8c0-3.9 3.1-7 7-7 1.5 0 2.9.5 4 1.3l.7-.8zM4.8 13l-2 2h.7c.8 0 1.5-.7 1.5-1.5v-.7l-.2.2zm11.1-4c.1-.3.1-.7.1-1 0-1.8-.6-3.4-1.5-4.7l-.8.7c.8 1.1 1.3 2.5 1.3 4v.1c-.2-.1-.3-.1-.5-.1h-2c-.8 0-1.5.7-1.5 1.5v4c0 .8.7 1.5 1.5 1.5h2c.8 0 1.5-.7 1.5-1.5v-4c0-.2 0-.3-.1-.5zm-.9 4.5c0 .3-.2.5-.5.5h-2c-.3 0-.5-.2-.5-.5v-4c0-.3.2-.5.5-.5h2c.3 0 .5.2.5.5v4zM16.1.6L4.6 12.1l-4 4-.7-.7 4-4 7.5-7.5 4-4zM11.4 3.9l-7.5 7.5z"/></svg>