<svg width="16" height="16" xmlns="http://www.w3.org/2000/svg" viewBox="0 0 16 16"><path fill="#3D4142" d="M5.5 8.2V3.5C5.5 2.1 6.6 1 8 1c1.3 0 2.4 1 2.5 2.3l.8-.8C10.9 1 9.6 0 8 0 6.1 0 4.5 1.6 4.5 3.5v5c0 .2 0 .5.1.7l.9-1zm5 .3C10.5 9.9 9.4 11 8 11c-.5 0-1-.1-1.3-.4l-.7.7c.5.4 1.2.7 2 .7 1.9 0 3.5-1.6 3.5-3.5V5.8l-1 1v1.7zm2-.5v1c0 2.2-1.8 4-4 4h-1c-.9 0-1.7-.3-2.4-.8l-.7.7c.8.7 1.9 1.1 3.1 1.1v1H7c-.3 0-.5.2-.5.5s.2.5.5.5h2c.3 0 .5-.2.5-.5S9.3 15 9 15h-.5v-1c2.8 0 5-2.2 5-5V8h-1zm-9 0h-1v1c0 .7.1 1.3.4 1.9l.8-.8c-.1-.4-.2-.7-.2-1.1V8zM15.9.7l-3.7 3.7-7.8 7.8-3.7 3.7-.8-.7L15.2-.1z"/></svg>